# xmcd
#
# Track frame offsets:
# 150
# 11992
# 23440
# 37912
# 47850
# 65802
# 77052
# 88542
# 100945
# 107780
#
# Disc length: 1553 seconds
#
#
# Revision: 0
# Processed by: cddbd v1.4PL0 Copyright (c) Steve Scherf et al.
# Submitted via: FreeRIP 2.51 
#
DISCID=78060f0a
DTITLE=Fats Domino - The Fat Man
DYEAR=1900
DGENRE=Blues
TTITLE0=The Fat Man
TTITLE1=Ain't that a shame
TTITLE2=I'm in love again
TTITLE3=My blue heaven
TTITLE4=So-long
TTITLE5=Blueberry Hill
TTITLE6=Blue Monday
TTITLE7=I'm walkin'
TTITLE8=Whole lotta lovin'
TTITLE9=When the saints go marching in
EXTD=
EXTT0=
EXTT1=
EXTT2=
EXTT3=
EXTT4=
EXTT5=
EXTT6=
EXTT7=
EXTT8=
EXTT9=
PLAYORDER=
